ply
format ascii 1.0
comment PCL generated
element vertex 20
property float x
property float y
property float z
element camera 1
property float view_px
property float view_py
property float view_pz
property float x_axisx
property float x_axisy
property float x_axisz
property float y_axisx
property float y_axisy
property float y_axisz
property float z_axisx
property float z_axisy
property float z_axisz
property float focal
property float scalex
property float scaley
property float centerx
property float centery
property int viewportx
property int viewporty
property float k1
property float k2
end_header
-1.7333398 2.3813622 0.14447901
-1.6699649 2.5173166 0.1442121
-1.4164656 3.0611341 0.1431478
-1.3530908 3.1970885 0.14288157
-1.7334886 2.3817253 0.29447916
-1.6701138 2.5176797 0.2942121
-1.5856141 2.6989522 0.29385817
-1.4166144 3.0614972 0.29314762
-1.3532397 3.1974516 0.29288179
-1.733687 2.3822095 0.49447834
-1.3534383 3.1979356 0.49288088
-1.7340841 2.3831778 0.89447761
-1.6707094 2.5191321 0.89421201
-1.5862095 2.7004046 0.89385527
-1.41721 3.0629497 0.89314628
-1.3538352 3.198904 0.89288014
-1.734233 2.3835409 1.0444775
-1.6708581 2.5194952 1.0442113
-1.4173589 3.0633128 1.0431472
-1.353984 3.1992671 1.0428799
0 0 0 1 0 0 0 1 0 0 0 1 0 0 0 0 0 20 1 0 0
